<svg xmlns="http://www.w3.org/2000/svg" viewBox="0 0 362.18 508.76"><defs><style>.cls-1{fill:#13abbe;}.cls-2{fill:#1b99aa;}.cls-3{fill:#fff;}.cls-4{fill:#ebe7e6;}</style></defs><title>html</title><g id="Mode_Isolation" data-name="Mode Isolation"><path class="cls-1" d="M341.63,574.83,199.79,614a8.57,8.57,0,0,1-4.63,0L53.44,574.77A6.63,6.63,0,0,1,48.61,569L16,207.88a4.78,4.78,0,0,1,4.75-5.22H374.25a3.87,3.87,0,0,1,3.86,4.2L345.82,569.8A5.74,5.74,0,0,1,341.63,574.83Z" transform="translate(-15.94 -105.56)"/><path class="cls-2" d="M316.28,553.5,201.33,585.9a1.82,1.82,0,0,1-2.32-1.76V241.63a4.7,4.7,0,0,1,4.7-4.71h138a5,5,0,0,1,5,5.42L320.22,548.73A5.42,5.42,0,0,1,316.28,553.5Z" transform="translate(-15.94 -105.56)"/><path class="cls-3" d="M312.14,272.66l-2.73,40.17a2.8,2.8,0,0,1-2.8,2.61H138.11a2.81,2.81,0,0,0-2.8,3.08l3.9,39.72a2.81,2.81,0,0,0,2.79,2.54H301.73a2.8,2.8,0,0,1,2.79,3L293,496.67a2.8,2.8,0,0,1-2,2.44l-90.73,28.08a2.76,2.76,0,0,1-1.61,0L108.4,500.87a2.82,2.82,0,0,1-2-2.44l-6.2-66.17a2.8,2.8,0,0,1,2.76-3.07l40.16-.39a2.81,2.81,0,0,1,2.82,2.53l3.12,32a2.79,2.79,0,0,0,2,2.43l47.61,13.06a2.7,2.7,0,0,0,1.49,0l47.15-13.05a2.79,2.79,0,0,0,2-2.47l4.48-55a2.81,2.81,0,0,0-2.83-3L99.41,407a2.81,2.81,0,0,1-2.83-2.58L85.92,272.7a2.81,2.81,0,0,1,2.8-3H309.34A2.81,2.81,0,0,1,312.14,272.66Z" transform="translate(-15.94 -105.56)"/><path class="cls-4" d="M151.1,465.86a2.8,2.8,0,0,1-2-2.44l-3.12-32a2.8,2.8,0,0,0-2.82-2.53l-40.16.39a2.79,2.79,0,0,0-2.76,3.06l6.2,66.18a2.79,2.79,0,0,0,2,2.43l89.76,26.2V478.77Z" transform="translate(-15.94 -105.56)"/><path class="cls-4" d="M88.72,269.79a2.81,2.81,0,0,0-2.8,3l10.66,131.7a2.81,2.81,0,0,0,2.83,2.58L198.16,406V360.9H142a2.8,2.8,0,0,1-2.79-2.53l-3.9-39.72a2.81,2.81,0,0,1,2.8-3.08h60V269.79Z" transform="translate(-15.94 -105.56)"/><path class="cls-1" d="M278,105.56v68.7H255.51V142.61l-1.26-.49-15,23c-5.2-8-10.11-15.52-15-23.07l-.93.15v32.15H200.64V169q0-28.74,0-57.49c0-2-.31-3.95-.47-5.93H225.1l14.33,24.49c5.15-8.62,9.88-16.56,14.61-24.49Z" transform="translate(-15.94 -105.56)"/><path class="cls-1" d="M117.31,105.56q-.16,30-.33,59.89c0,2.81,0,5.61,0,8.76H94.06V151.92h-21v22.3H49.77V169q0-29,0-57.93c0-1.82-.21-3.64-.32-5.46h23v22.59H94.35V105.56Z" transform="translate(-15.94 -105.56)"/><path class="cls-1" d="M190.17,105.56v22.83H170.36v45.88H147.53v-45.5H127.29V105.56Z" transform="translate(-15.94 -105.56)"/><path class="cls-1" d="M312.93,105.56v45.9h31.69v22.83H290V105.56Z" transform="translate(-15.94 -105.56)"/></g></svg>